# xmcd
#
# Track frame offsets:
#	150
#	118100
#	129682
#	171210
#	181291
#
# Disc length: 4524 seconds
#
# Revision: 1
# Processed by: cddbd v1.5.2PL0 Copyright (c) Steve Scherf et al.
# Submitted via: audiograbber 1.83.01
#
DISCID=4211aa05
DTITLE=Grateful Dead - 70-02-08 Fillmore West, San Francisco CA
DYEAR=1900
DGENRE=
TTITLE0=Dark Star
TTITLE1=St Stephen
TTITLE2=Not Fade Away
TTITLE3=St Stephen
TTITLE4=Turn On Your Lovelight
EXTD=
EXTT0=
EXTT1=
EXTT2=
EXTT3=
EXTT4=
PLAYORDER=
